<?xml version="1.0"?>
<svg xmlns="http://www.w3.org/2000/svg" width="216" height="252" viewBox="0 0 216 252" fill="none">
<g clip-path="url(#clip0_4302_5679)">
<path d="M11.0183 133.842C13.2 133.951 15.4907 133.513 17.5632 132.419C20.5084 130.887 22.6901 128.261 23.7809 124.979L20.9448 124.104C20.1812 126.511 18.545 128.59 16.2543 129.793C13.9635 130.997 11.3456 131.216 8.94579 130.45C7.0914 129.903 5.56426 128.59 4.58252 126.839C3.70987 125.088 3.4917 123.119 4.03711 121.149C4.47344 119.727 5.45517 118.523 6.76415 117.867C8.07313 117.21 9.60028 116.992 11.0183 117.429C12.1092 117.758 12.9818 118.523 13.5272 119.508C14.0726 120.493 14.1817 121.587 13.8545 122.681L16.6906 123.557C17.236 121.696 17.1269 119.727 16.1452 118.086C15.2725 116.335 13.7454 115.132 11.891 114.584C7.30956 113.162 2.50997 115.679 1.09191 120.274C0.219253 122.9 0.546499 125.745 1.7464 128.261C3.05538 130.669 5.23701 132.529 7.85497 133.404C8.94579 133.513 10.0366 133.732 11.0183 133.842Z" fill="#C157DE"/>
<path d="M102.647 242.6C102.211 244.241 103.301 245.882 104.829 246.211L126.427 251.353C128.063 251.791 129.699 250.697 130.027 249.165L136.244 223.124C136.68 221.483 135.59 219.841 134.063 219.513L112.464 214.371C110.828 213.933 109.192 215.027 108.865 216.559L102.647 242.6Z" fill="#C157DE"/>
<path d="M31.4165 225.42C30.9802 227.062 32.071 228.703 33.5982 229.031L55.1963 234.174C56.8326 234.611 58.4688 233.517 58.796 231.985L65.0137 205.944C65.45 204.303 64.3592 202.662 62.8321 202.334L41.2339 197.191C39.5977 196.753 37.9614 197.847 37.6342 199.379L31.4165 225.42Z" fill="#C157DE"/>
<path d="M197.439 90.5098C197.657 90.5098 197.766 90.6192 197.984 90.6192L185.876 141.169L158.497 134.604C156.206 128.587 155.661 121.803 157.297 115.128C161.66 97.2936 179.659 86.2426 197.439 90.5098Z" fill="#210526"/>
<path d="M98.5019 85.3695L146.716 96.9676C176.168 104.08 196.457 129.464 198.421 158.24L215.656 162.398L206.493 200.913L195.148 198.177L194.712 210.651L182.931 207.806C167.005 227.501 140.826 237.458 114.646 231.111L66.4319 219.513C30.1077 210.76 7.74592 174.215 16.4725 137.78L17.0179 135.591C25.6353 99.0465 62.1777 76.6162 98.5019 85.3695Z" fill="#C157DE"/>
<path d="M161.551 164.479L164.278 165.136C165.369 160.431 170.059 157.586 174.75 158.68C179.44 159.774 182.277 164.479 181.186 169.184L183.913 169.841C185.44 163.604 181.513 157.367 175.404 155.835C169.296 154.413 162.969 158.243 161.551 164.479Z" fill="#080717"/>
<path d="M173.332 84.7129C173.55 84.7129 173.659 84.8224 173.877 84.8224L161.769 135.372L154.134 133.512L134.499 128.808C132.208 122.79 131.663 116.006 133.299 109.332C137.553 91.4967 155.552 80.4457 173.332 84.7129Z" fill="#C157DE"/>
<path d="M8.29139 112.507C9.38221 110.866 10.9094 109.771 12.7637 109.334C14.6181 108.896 16.5816 109.334 18.2178 110.318L16.5816 112.835C15.5999 112.179 14.509 112.069 13.4182 112.288C12.3274 112.507 11.3457 113.163 10.8003 114.148C10.0367 115.352 9.70945 116.883 10.0367 118.415C10.3639 119.838 11.2366 121.151 12.4365 121.917C13.6364 122.682 15.0545 122.573 16.3634 122.354C17.4543 122.135 15.818 127.278 11.4548 124.871C11.2366 124.761 11.0184 124.652 10.8003 124.433C6.87333 121.917 5.67343 116.555 8.29139 112.507Z" fill="#C120ED"/>
<path d="M77.34 4.94531L70.9042 10.7444C63.2685 17.747 63.1594 31.424 71.3405 43.7879C80.7216 57.9026 97.4111 64.9052 108.646 59.325L115.082 53.526C103.847 59.1062 87.1574 52.1035 77.7764 37.9889C69.4861 25.6249 69.5952 11.8385 77.34 4.94531Z" fill="#B2FF9E"/>
<path d="M115.082 53.5281C126.318 47.9479 127.845 32.0826 118.355 17.968C108.974 3.85333 92.2843 -3.14929 81.0489 2.32151C69.8135 7.90171 68.2863 23.767 77.7764 37.8817C87.1574 52.1057 103.847 59.1083 115.082 53.5281Z" fill="#B4E56E"/>
<path d="M62.723 92.9216C62.1776 92.9216 61.7413 92.5933 61.6322 92.0462C61.5231 91.4992 61.8504 90.8427 62.3958 90.7333L77.2309 87.1225C77.7763 87.0131 78.4308 87.3414 78.5399 87.8884C78.649 88.4355 78.3217 89.092 77.7763 89.2014L62.9412 92.8122C62.9412 92.9216 62.8321 92.9216 62.723 92.9216Z" fill="black"/>
<path d="M74.1765 73.9865L65.7773 73.4394C65.1228 73.4394 64.6864 72.8924 64.7955 72.2359C64.7955 71.5794 65.3409 71.1417 65.9954 71.2511L74.3947 71.7982C75.0492 71.7982 75.4855 72.3453 75.3764 73.0018C75.2674 73.5489 74.831 73.9865 74.1765 73.9865Z" fill="black"/>
<path d="M75.0492 109C74.7219 109 74.3947 108.781 74.1765 108.453C73.8493 107.905 73.9583 107.249 74.5037 106.921L81.485 102.325C82.0304 101.997 82.6849 102.106 83.0121 102.654C83.3394 103.201 83.2303 103.857 82.6849 104.185L75.7037 108.781C75.4855 108.89 75.2673 109 75.0492 109Z" fill="black"/>
<path d="M60.8689 36.5703H58.6873V43.4635H60.8689V36.5703Z" fill="#080717"/>
<path d="M63.1595 38.8672H56.2874V41.0555H63.1595V38.8672Z" fill="#080717"/>
<path d="M47.1245 4.94531H44.9429V11.8385H47.1245V4.94531Z" fill="#080717"/>
<path d="M49.4151 7.35156H42.543V9.53988H49.4151V7.35156Z" fill="#080717"/>
<path d="M49.1968 71.7969H47.0151V84.3797H49.1968V71.7969Z" fill="#080717"/>
<path d="M54.3237 76.9375H41.7793V79.1258H54.3237V76.9375Z" fill="#080717"/>
<path d="M67.5227 49.9141H65.3411V62.2781H67.5227V49.9141Z" fill="#080717"/>
<path d="M72.6495 54.9453H60.3232V57.1336H72.6495V54.9453Z" fill="#080717"/>
<path d="M131.881 32.1931H129.699V30.0047H131.881V32.1931ZM131.881 27.8164H129.699V25.6281H131.881V27.8164ZM131.881 23.4398H129.699V21.2515H131.881V23.4398ZM131.881 19.0632H129.699V17.3125H131.881V19.0632Z" fill="#282D33"/>
<path d="M101.338 40.2868H99.1562V38.0985H101.338V40.2868ZM101.338 35.9102H99.1562V33.7219H101.338V35.9102ZM101.338 31.5335H99.1562V29.3452H101.338V31.5335ZM101.338 27.1569H99.1562V25.4062H101.338V27.1569Z" fill="#282D33"/>
<path d="M109.955 103.637C107.992 103.637 105.919 103.309 104.065 102.762C103.956 102.762 103.847 102.653 103.847 102.653L96.5383 97.8384C96.1019 97.5101 95.8838 96.963 96.1019 96.416C96.3201 95.8689 96.8655 95.6501 97.4109 95.8689C108.864 99.4796 123.918 90.2887 130.899 75.2987C136.898 62.4971 135.153 49.2577 126.754 43.6775C126.208 43.3493 126.099 42.6928 126.427 42.1457C126.754 41.5986 127.408 41.4892 127.954 41.8175L135.262 46.6318C144.534 52.759 146.607 67.2019 140.171 80.9883C133.953 94.5559 121.3 103.637 109.955 103.637ZM104.828 100.683C116.282 104.184 131.226 94.9936 138.207 80.113C144.207 67.3113 142.462 54.072 134.062 48.4918L133.844 48.273C137.771 55.6039 137.662 65.9984 132.862 76.174C126.536 89.7416 113.882 98.8231 102.538 98.8231C102.32 98.8231 102.101 98.8231 101.883 98.8231L104.828 100.683Z" fill="black"/>
<path d="M102.647 98.7204C100.684 98.7204 98.611 98.3921 96.7566 97.845C91.7388 96.2038 87.921 92.7025 85.7393 87.6693C82.4669 80.2291 83.1214 70.7099 87.4846 61.4095C94.9022 45.4348 111.155 35.6968 123.7 39.7452C128.718 41.3864 132.535 44.8877 134.717 49.9209C137.989 57.3612 137.335 66.8803 132.972 76.1807C126.536 89.6388 113.991 98.7204 102.647 98.7204ZM97.4111 95.7661C108.865 99.3768 123.918 90.1859 130.899 75.1959C134.935 66.6615 135.59 57.4706 132.644 50.6868C130.681 46.2007 127.299 43.1371 122.936 41.7147C111.483 38.104 96.4293 47.2949 89.4481 62.2849C85.4121 70.8193 84.7576 80.0102 87.7028 86.794C89.6663 91.2801 93.0478 94.3437 97.4111 95.7661Z" fill="black"/>
</g>
<defs>
<clipPath id="clip0_4302_5679">
<rect width="215" height="251" fill="white" transform="translate(0.655518 0.460938)"/>
</clipPath>
</defs>
</svg>
